<svg width="24" height="24" viewBox="0 0 24 24" fill="none" xmlns="http://www.w3.org/2000/svg">
<g clip-path="url(#clip0_1730_4411)">
<path d="M12.0039 0C6.99403 0 5.52883 0.00516967 5.24402 0.0288024C4.2159 0.114287 3.57615 0.276208 2.87917 0.623314C2.34204 0.890106 1.91843 1.19936 1.50035 1.63288C0.738959 2.42347 0.277507 3.3961 0.110461 4.55226C0.0292458 5.11354 0.00561946 5.22801 0.000820359 8.09496C-0.00102545 9.05061 0.000820359 10.3083 0.000820359 11.9953C0.000820359 17.0025 0.00635778 18.4666 0.0303533 18.7509C0.113415 19.7516 0.270308 20.3812 0.602553 21.0699C1.23751 22.3882 2.45021 23.3778 3.87886 23.7471C4.37354 23.8745 4.9199 23.9446 5.6213 23.9778C5.91848 23.9908 8.94744 24 11.9783 24C15.0091 24 18.0399 23.9963 18.3297 23.9815C19.1418 23.9433 19.6134 23.88 20.1349 23.7452C20.8433 23.5635 21.5035 23.2293 22.0693 22.7659C22.6352 22.3026 23.0932 21.7212 23.4112 21.0625C23.737 20.3905 23.9022 19.7369 23.9769 18.7884C23.9932 18.5816 24 15.2847 24 11.9922C24 8.69907 23.9926 5.40821 23.9764 5.20142C23.9007 4.23765 23.7355 3.5896 23.3992 2.90461C23.1232 2.34389 22.8168 1.92515 22.372 1.49699C21.5783 0.738524 20.6074 0.276947 19.4503 0.11004C18.8897 0.0289871 18.778 0.00498504 15.9096 0H12.0039Z" fill="#A5ABAB"/>
<path fill-rule="evenodd" clip-rule="evenodd" d="M8.28962 3.05438C9.24963 3.01069 9.55638 3 12.0007 3H11.998C14.4431 3 14.7487 3.01069 15.7087 3.05438C16.6668 3.09825 17.3212 3.24994 17.895 3.4725C18.4875 3.70219 18.9881 4.00969 19.4887 4.51031C19.9894 5.01056 20.2969 5.51269 20.5275 6.10462C20.7487 6.67687 20.9006 7.33087 20.9456 8.289C20.9888 9.249 21 9.55575 21 12C21 14.4443 20.9888 14.7503 20.9456 15.7103C20.9006 16.668 20.7487 17.3222 20.5275 17.8946C20.2969 18.4864 19.9894 18.9885 19.4887 19.4888C18.9887 19.9894 18.4873 20.2976 17.8955 20.5275C17.3229 20.7501 16.6681 20.9018 15.71 20.9456C14.75 20.9893 14.4442 21 11.9997 21C9.55563 21 9.24906 20.9893 8.28905 20.9456C7.33111 20.9018 6.67691 20.7501 6.10428 20.5275C5.51271 20.2976 5.01058 19.9894 4.51052 19.4888C4.01007 18.9885 3.70257 18.4864 3.47251 17.8944C3.25013 17.3222 3.09844 16.6682 3.05438 15.7101C3.01088 14.7501 3 14.4443 3 12C3 9.55575 3.01125 9.24881 3.054 8.28881C3.09713 7.33106 3.249 6.67687 3.47213 6.10444C3.70276 5.51269 4.01026 5.01056 4.51089 4.51031C5.01115 4.00988 5.51328 3.70238 6.10522 3.4725C6.67748 3.24994 7.33148 3.09825 8.28962 3.05438ZM11.7007 4.62179C11.5187 4.62171 11.35 4.62163 11.1933 4.62187V4.61963C9.51588 4.6215 9.19413 4.63275 8.36387 4.67025C7.48636 4.71056 7.00992 4.85681 6.69266 4.98056C6.27266 5.14406 5.97266 5.33906 5.65765 5.65406C5.34265 5.96906 5.14727 6.26906 4.98415 6.68906C4.86096 7.00631 4.71433 7.48256 4.67421 8.36006C4.63108 9.30881 4.62245 9.59231 4.62245 11.9957C4.62245 14.3991 4.63108 14.6841 4.67421 15.6328C4.71414 16.5103 4.86096 16.9866 4.98415 17.3034C5.14765 17.7236 5.34265 18.0229 5.65765 18.3379C5.97266 18.6529 6.27266 18.8479 6.69266 19.011C7.0101 19.1342 7.48636 19.2808 8.36387 19.3213C9.31263 19.3644 9.59744 19.3738 12.0007 19.3738C14.4037 19.3738 14.6887 19.3644 15.6374 19.3213C16.515 19.2812 16.9916 19.1349 17.3085 19.0112C17.7287 18.8481 18.0277 18.6531 18.3427 18.3381C18.6577 18.0233 18.8531 17.7242 19.0162 17.3042C19.1394 16.9873 19.286 16.5111 19.3262 15.6336C19.3693 14.6848 19.3787 14.3998 19.3787 11.9979C19.3787 9.59606 19.3693 9.31106 19.3262 8.36231C19.2862 7.48481 19.1394 7.00856 19.0162 6.69169C18.8527 6.27169 18.6577 5.97169 18.3427 5.65669C18.0279 5.34169 17.7285 5.14669 17.3085 4.98356C16.9912 4.86038 16.515 4.71375 15.6374 4.67363C14.6885 4.6305 14.4037 4.62187 12.0007 4.62187C11.8968 4.62187 11.7969 4.62183 11.7007 4.62179ZM16.2048 6.29829C16.3824 6.1796 16.5912 6.11625 16.8048 6.11625V6.11588C17.4011 6.11588 17.8848 6.59962 17.8848 7.19587C17.8849 7.40949 17.8216 7.61834 17.703 7.79599C17.5844 7.97365 17.4157 8.11213 17.2184 8.19393C17.0211 8.27573 16.8039 8.29717 16.5944 8.25554C16.3848 8.21391 16.1924 8.11108 16.0413 7.96006C15.8902 7.80903 15.7873 7.6166 15.7456 7.40709C15.7039 7.19758 15.7253 6.9804 15.807 6.78304C15.8887 6.58567 16.0272 6.41698 16.2048 6.29829ZM7.37873 12C7.37873 9.44762 9.44809 7.37822 12.0005 7.37812C14.5529 7.37812 16.622 9.44756 16.622 12C16.622 14.5524 14.5531 16.6209 12.0007 16.6209C9.44819 16.6209 7.37873 14.5524 7.37873 12ZM15.0007 12C15.0007 10.3431 13.6574 9 12.0007 9C10.3437 9 9.00062 10.3431 9.00062 12C9.00062 13.6567 10.3437 15 12.0007 15C13.6574 15 15.0007 13.6567 15.0007 12Z" fill="white"/>
</g>
<defs>
<clipPath id="clip0_1730_4411">
<rect width="24" height="24" fill="white"/>
</clipPath>
</defs>
</svg>
