<svg width="24" height="24" viewBox="0 0 24 24" fill="none" xmlns="http://www.w3.org/2000/svg">
<path d="M7.54774 22C16.6048 22 21.5577 14.3062 21.5577 7.63442C21.5577 7.41591 21.5534 7.1984 21.5438 6.98179C22.5075 6.2668 23.3392 5.38147 24 4.36731C23.1177 4.76948 22.1683 5.04017 21.1724 5.16223C22.1889 4.5371 22.9694 3.54837 23.3376 2.36963C22.371 2.95762 21.3135 3.37209 20.2109 3.59519C19.3123 2.61382 18.0332 2 16.6166 2C13.8974 2 11.6924 4.26112 11.6924 7.04827C11.6924 7.44449 11.7356 7.82989 11.8201 8.19951C7.72765 7.98836 4.09879 5.97927 1.67015 2.92432C1.23274 3.69477 1.00265 4.57049 1.0034 5.46199C1.0034 7.21368 1.8727 8.76006 3.19461 9.66473C2.41269 9.64027 1.64792 9.4237 0.964578 9.03324C0.963853 9.05446 0.963853 9.07511 0.963853 9.09773C0.963853 11.5429 2.66115 13.5845 4.91422 14.0471C4.49105 14.1653 4.0544 14.225 3.61582 14.2248C3.30522 14.2246 2.99535 14.1941 2.69038 14.1337C3.31727 16.1398 5.13505 17.5997 7.29018 17.6404C5.60489 18.9949 3.48189 19.8016 1.17453 19.8016C0.777573 19.8016 0.385444 19.7785 0 19.7318C2.17922 21.164 4.76684 21.9998 7.54798 21.9998" fill="#A5ABAB"/>
</svg>
