<svg width="24" height="24" viewBox="0 0 24 24" fill="none" xmlns="http://www.w3.org/2000/svg">
<path d="M23.5057 6.65511C23.2289 5.61702 22.4184 4.79853 21.3904 4.51904C19.5123 4 11.9999 4 11.9999 4C11.9999 4 4.48763 4 2.60954 4.49908C1.60131 4.77857 0.771002 5.61702 0.494232 6.65511C0 8.55162 0 12.4844 0 12.4844C0 12.4844 0 16.4371 0.494232 18.3136C0.771002 19.3517 1.58154 20.1702 2.60954 20.4497C4.50739 20.9688 11.9999 20.9688 11.9999 20.9688C11.9999 20.9688 19.5123 20.9688 21.3904 20.4697C22.4184 20.1902 23.2289 19.3717 23.5057 18.3336C23.9999 16.4371 23.9999 12.5043 23.9999 12.5043C23.9999 12.5043 24.0197 8.55162 23.5057 6.65511Z" fill="#A5ABAB"/>
<path d="M9.60547 8.85156V16.1182L15.8526 12.4849L9.60547 8.85156Z" fill="white"/>
</svg>
