<svg width="24" height="24" viewBox="0 0 24 24" fill="none" xmlns="http://www.w3.org/2000/svg">
<g clip-path="url(#clip0_1730_4422)">
<path d="M24 12.0733C24 5.40541 18.6274 0 12 0C5.37258 0 0 5.40541 0 12.0733C0 18.0995 4.38822 23.0943 10.125 24V15.5633H7.07813V12.0733H10.125V9.41344C10.125 6.38754 11.9165 4.71615 14.6576 4.71615C15.9705 4.71615 17.3438 4.95195 17.3438 4.95195V7.92313H15.8306C14.3399 7.92313 13.875 8.85379 13.875 9.80858V12.0733H17.2031L16.6711 15.5633H13.875V24C19.6118 23.0943 24 18.0995 24 12.0733Z" fill="#A5ABAB"/>
<path d="M16.3447 15.6068L16.863 12.1942H13.621V9.97958C13.621 9.04596 14.0739 8.13592 15.526 8.13592H17V5.23058C17 5.23058 15.6623 5 14.3833 5C11.7132 5 9.96803 6.63436 9.96803 9.59321V12.1942H7V15.6068H9.96803V23.8566C10.5723 23.9522 11.1829 24.0002 11.7945 24C12.4159 24 13.0259 23.9509 13.621 23.8566V15.6068H16.3447Z" fill="white"/>
</g>
<defs>
<clipPath id="clip0_1730_4422">
<rect width="24" height="24" fill="white"/>
</clipPath>
</defs>
</svg>
